<?xml version="1.0" encoding="UTF-8" standalone="no"?>
<!-- Created with Inkscape (http://www.inkscape.org/) -->

<svg
   width="79.375145mm"
   height="79.37516mm"
   viewBox="0 0 79.375145 79.37516"
   version="1.1"
   id="svg1"
   xmlns:xlink="http://www.w3.org/1999/xlink"
   xmlns="http://www.w3.org/2000/svg"
   xmlns:svg="http://www.w3.org/2000/svg">
  <defs
     id="defs1">
    <linearGradient
       id="linearGradient1">
      <stop
         style="stop-color:#000000;stop-opacity:0;"
         offset="0"
         id="stop24" />
      <stop
         style="stop-color:#25a1d2;stop-opacity:1;"
         offset="1"
         id="stop25" />
    </linearGradient>
    <radialGradient
       xlink:href="#linearGradient1"
       id="radialGradient2"
       cx="106.69626"
       cy="143.68715"
       fx="106.69626"
       fy="143.68715"
       r="28.865723"
       gradientTransform="matrix(1.3749007,0,0,1.3749006,-29.178719,-44.543367)"
       gradientUnits="userSpaceOnUse" />
  </defs>
  <g
     id="layer1"
     transform="translate(-77.830392,-113.32471)">
    <path
       id="path1"
       style="fill:#7aebf2;fill-opacity:0.965847;stroke:none;stroke-width:0.354695;stroke-linecap:round;stroke-linejoin:round;stroke-opacity:1"
       d="m 117.51789,113.32487 a 39.6875,39.6875 0 0 0 -11.18123,1.60765 39.6875,39.6875 0 0 0 -5.30562,1.97869 39.6875,39.6875 0 0 0 -9.502777,6.10712 39.6875,39.6875 0 0 0 -4.00389,4.00389 39.6875,39.6875 0 0 0 -0.853178,1.13998 39.6875,39.6875 0 0 0 -2.540413,3.39308 39.6875,39.6875 0 0 0 0,5.1e-4 39.6875,39.6875 0 0 0 -0.958598,1.75494 39.6875,39.6875 0 0 0 -3.734139,8.52041 39.6875,39.6875 0 0 0 -1.607654,11.18123 39.6875,39.6875 0 0 0 0.40411,5.64771 39.6875,39.6875 0 0 0 1.203544,5.53352 39.6875,39.6875 0 0 0 4.692737,10.27534 39.6875,39.6875 0 0 0 3.393591,4.53305 39.6875,39.6875 0 0 0 4.00389,4.00389 39.6875,39.6875 0 0 0 4.533057,3.3936 39.6875,39.6875 0 0 0 10.27534,4.69273 39.6875,39.6875 0 0 0 5.533,1.20355 39.6875,39.6875 0 0 0 5.1e-4,0 39.6875,39.6875 0 0 0 5.64772,0.40411 39.6875,39.6875 0 0 0 5.64824,-0.40411 39.6875,39.6875 0 0 0 5.53299,-1.20355 39.6875,39.6875 0 0 0 8.52041,-3.73414 39.6875,39.6875 0 0 0 5.14852,-3.49901 39.6875,39.6875 0 0 0 1.13947,-0.85266 39.6875,39.6875 0 0 0 4.00441,-4.00441 39.6875,39.6875 0 0 0 6.10712,-9.50278 39.6875,39.6875 0 0 0 1.97869,-5.30561 39.6875,39.6875 0 0 0 1.60765,-11.18123 39.6875,39.6875 0 0 0 -0.1912,-3.89021 39.6875,39.6875 0 0 0 -0.23823,-1.93321 39.6875,39.6875 0 0 0 -1.27951,-5.69733 39.6875,39.6875 0 0 0 -1.31206,-3.66696 39.6875,39.6875 0 0 0 -1.66502,-3.52071 39.6875,39.6875 0 0 0 0,-5.2e-4 39.6875,39.6875 0 0 0 -0.96015,-1.69447 39.6875,39.6875 0 0 0 -1.04231,-1.64589 39.6875,39.6875 0 0 0 -2.32027,-3.12798 39.6875,39.6875 0 0 0 0,-5.2e-4 39.6875,39.6875 0 0 0 -1.27227,-1.47484 39.6875,39.6875 0 0 0 -2.75384,-2.75384 39.6875,39.6875 0 0 0 -4.60334,-3.59254 39.6875,39.6875 0 0 0 -3.34036,-2.00247 39.6875,39.6875 0 0 0 -5.2e-4,0 39.6875,39.6875 0 0 0 -3.52072,-1.66501 39.6875,39.6875 0 0 0 -3.66695,-1.31206 39.6875,39.6875 0 0 0 -5.69733,-1.27951 39.6875,39.6875 0 0 0 -5.82342,-0.42943 z m 0,26.45833 a 13.229167,13.229167 0 0 1 13.22917,13.22917 13.229167,13.229167 0 0 1 -13.22917,13.22916 13.229167,13.229167 0 0 1 -13.22917,-13.22916 13.229167,13.229167 0 0 1 13.22917,-13.22917 z" />
    <path
       id="path25"
       style="fill:url(#radialGradient2);fill-opacity:1;stroke:none;stroke-width:0.354695;stroke-linecap:round;stroke-linejoin:round;stroke-opacity:1"
       d="m 117.51789,113.32487 a 39.6875,39.6875 0 0 0 -11.18123,1.60765 39.6875,39.6875 0 0 0 -5.30562,1.97869 39.6875,39.6875 0 0 0 -9.502777,6.10712 39.6875,39.6875 0 0 0 -4.00389,4.00389 39.6875,39.6875 0 0 0 -0.853178,1.13998 39.6875,39.6875 0 0 0 -2.540413,3.39308 39.6875,39.6875 0 0 0 0,5.1e-4 39.6875,39.6875 0 0 0 -0.958598,1.75494 39.6875,39.6875 0 0 0 -3.734139,8.52041 39.6875,39.6875 0 0 0 -1.607654,11.18123 39.6875,39.6875 0 0 0 0.40411,5.64771 39.6875,39.6875 0 0 0 1.203544,5.53352 39.6875,39.6875 0 0 0 4.692737,10.27534 39.6875,39.6875 0 0 0 3.393591,4.53305 39.6875,39.6875 0 0 0 4.00389,4.00389 39.6875,39.6875 0 0 0 4.533057,3.3936 39.6875,39.6875 0 0 0 10.27534,4.69273 39.6875,39.6875 0 0 0 5.533,1.20355 39.6875,39.6875 0 0 0 5.1e-4,0 39.6875,39.6875 0 0 0 5.64772,0.40411 39.6875,39.6875 0 0 0 5.64824,-0.40411 39.6875,39.6875 0 0 0 5.53299,-1.20355 39.6875,39.6875 0 0 0 8.52041,-3.73414 39.6875,39.6875 0 0 0 5.14852,-3.49901 39.6875,39.6875 0 0 0 1.13947,-0.85266 39.6875,39.6875 0 0 0 4.00441,-4.00441 39.6875,39.6875 0 0 0 6.10712,-9.50278 39.6875,39.6875 0 0 0 1.97869,-5.30561 39.6875,39.6875 0 0 0 1.60765,-11.18123 39.6875,39.6875 0 0 0 -0.1912,-3.89021 39.6875,39.6875 0 0 0 -0.23823,-1.93321 39.6875,39.6875 0 0 0 -1.27951,-5.69733 39.6875,39.6875 0 0 0 -1.31206,-3.66696 39.6875,39.6875 0 0 0 -1.66502,-3.52071 39.6875,39.6875 0 0 0 0,-5.2e-4 39.6875,39.6875 0 0 0 -0.96015,-1.69447 39.6875,39.6875 0 0 0 -1.04231,-1.64589 39.6875,39.6875 0 0 0 -2.32027,-3.12798 39.6875,39.6875 0 0 0 0,-5.2e-4 39.6875,39.6875 0 0 0 -1.27227,-1.47484 39.6875,39.6875 0 0 0 -2.75384,-2.75384 39.6875,39.6875 0 0 0 -4.60334,-3.59254 39.6875,39.6875 0 0 0 -3.34036,-2.00247 39.6875,39.6875 0 0 0 -5.2e-4,0 39.6875,39.6875 0 0 0 -3.52072,-1.66501 39.6875,39.6875 0 0 0 -3.66695,-1.31206 39.6875,39.6875 0 0 0 -5.69733,-1.27951 39.6875,39.6875 0 0 0 -5.82342,-0.42943 z m 0,26.45833 a 13.229167,13.229167 0 0 1 13.22917,13.22917 13.229167,13.229167 0 0 1 -13.22917,13.22916 13.229167,13.229167 0 0 1 -13.22917,-13.22916 13.229167,13.229167 0 0 1 13.22917,-13.22917 z" />
    <ellipse
       style="fill:none;fill-opacity:1;stroke:#ffffff;stroke-width:0.394884;stroke-linecap:round;stroke-linejoin:round;stroke-dasharray:0.394884, 2.3693;stroke-dashoffset:0;stroke-opacity:0.587432"
       id="path15"
       cx="117.5171"
       cy="153.01503"
       rx="39.491001"
       ry="39.496677" />
  </g>
</svg>
